<svg width="35" height="35" viewBox="0 0 35 35" fill="none" xmlns="http://www.w3.org/2000/svg">
<path d="M6.49409 0C4.77381 0.00670354 3.12591 0.693053 1.90948 1.90948C0.693053 3.12591 0.00670354 4.77381 0 6.49409V28.5059C0.00670354 30.2262 0.693053 31.8741 1.90948 33.0905C3.12591 34.3069 4.77381 34.9933 6.49409 35H28.5059C30.2262 34.9933 31.8741 34.3069 33.0905 33.0905C34.3069 31.8741 34.9933 30.2262 35 28.5059V6.49409C34.9933 4.77381 34.3069 3.12591 33.0905 1.90948C31.8741 0.693053 30.2262 0.00670354 28.5059 0H6.49409ZM6.49409 3.18182H28.5059C30.3514 3.18182 31.8182 4.64864 31.8182 6.49409V28.5059C31.8182 30.3514 30.3514 31.8182 28.5059 31.8182H6.49409C6.05835 31.8209 5.6264 31.7371 5.2233 31.5716C4.82019 31.4062 4.45396 31.1623 4.14584 30.8542C3.83772 30.546 3.59384 30.1798 3.42836 29.7767C3.26287 29.3736 3.17907 28.9417 3.18182 28.5059V6.49409C3.18182 4.64864 4.64864 3.18182 6.49409 3.18182ZM17.053 11.5023C15.8836 11.4911 14.8893 11.5023 14.3309 11.7759C13.957 11.9573 13.6723 12.3661 13.8457 12.3852C14.0636 12.417 14.5536 12.522 14.8161 12.8768C15.1502 13.3302 15.1391 14.3564 15.1391 14.3564C15.1391 14.3564 15.3252 17.177 14.6841 17.5318C14.2434 17.7736 13.6405 17.282 12.3359 15.0389C11.6709 13.8839 11.1682 12.6095 11.1682 12.6095C11.1682 12.6095 11.0727 12.3725 10.9009 12.2484C10.6893 12.0941 10.3966 12.0432 10.3966 12.0432L7.28318 12.0623C7.28318 12.0623 6.81705 12.0814 6.65 12.2802C6.49409 12.4664 6.63727 12.8323 6.63727 12.8323C6.63727 12.8323 9.07296 18.5309 11.8316 21.4025C14.3611 24.0386 17.2327 23.8636 17.2327 23.8636H18.5373C18.5373 23.8636 18.9286 23.8207 19.1275 23.6091C19.3152 23.4102 19.3089 23.0364 19.3089 23.0364C19.3089 23.0364 19.2834 21.2911 20.0916 21.0302C20.8934 20.7805 21.9116 22.7198 22.9998 23.4659C23.827 24.0307 24.4539 23.9066 24.4539 23.9066L27.3636 23.8636C27.3636 23.8636 28.8798 23.7698 28.1591 22.5702C28.1034 22.478 27.7423 21.6889 26.0034 20.0725C24.1755 18.383 24.4189 18.6566 26.6175 15.7293C27.9539 13.9459 28.4884 12.8577 28.3198 12.3852C28.1607 11.9445 27.1775 12.0623 27.1775 12.0623L23.9018 12.0814C23.9018 12.0814 23.66 12.0495 23.4802 12.1561C23.3566 12.2479 23.2581 12.3694 23.1939 12.5093C23.1939 12.5093 22.672 13.8886 21.9816 15.0643C20.5275 17.5366 19.9373 17.6734 19.7018 17.5191C19.1482 17.158 19.285 16.0761 19.285 15.3125C19.285 12.907 19.6509 11.9127 18.577 11.6534C18.2223 11.5659 17.9614 11.5102 17.0545 11.5023H17.053Z" fill="black"/>
</svg>
