<svg width="35" height="24" viewBox="0 0 35 24" fill="none" xmlns="http://www.w3.org/2000/svg">
<path d="M32.5 0H2.5C1.83696 0 1.20107 0.252856 0.732233 0.702944C0.263392 1.15303 0 1.76348 0 2.4V21.6C0 22.2365 0.263392 22.847 0.732233 23.2971C1.20107 23.7471 1.83696 24 2.5 24H32.5C33.163 24 33.7989 23.7471 34.2678 23.2971C34.7366 22.847 35 22.2365 35 21.6V2.4C35 1.76348 34.7366 1.15303 34.2678 0.702944C33.7989 0.252856 33.163 0 32.5 0ZM29.75 2.4L17.5 10.536L5.25 2.4H29.75ZM2.5 21.6V3.492L16.7875 12.984C16.9967 13.1234 17.2453 13.198 17.5 13.198C17.7547 13.198 18.0033 13.1234 18.2125 12.984L32.5 3.492V21.6H2.5Z" fill="black"/>
</svg>
