<svg width="35" height="35" viewBox="0 0 35 35" fill="none" xmlns="http://www.w3.org/2000/svg">
<path d="M33.4733 5.54243L28.8139 0.888014C28.2451 0.319335 27.4839 0 26.6789 0C25.8739 0 25.1126 0.314961 24.5439 0.888014L19.5257 5.89676C18.957 6.46544 18.6376 7.23097 18.6376 8.03587C18.6376 8.84515 18.9526 9.60193 19.5257 10.175L23.4457 14.0989C22.5527 16.1793 21.2696 18.0695 19.6657 19.6675C18.0601 21.2817 16.1832 22.5547 14.1007 23.4558L10.1807 19.5319C9.61192 18.9633 8.85066 18.6439 8.04566 18.6439C7.6486 18.6425 7.25523 18.7202 6.88862 18.8727C6.52201 19.0252 6.18953 19.2493 5.91065 19.5319L0.888129 24.5407C0.319377 25.1094 0 25.8749 0 26.6798C0 27.4891 0.315001 28.2458 0.888129 28.8189L5.54315 33.4733C6.5144 34.4444 7.85316 35 9.22691 35C9.51129 35 9.78692 34.9781 10.0669 34.93C15.8594 33.9764 21.6082 30.8924 26.2501 26.2555C30.8876 21.6098 33.9676 15.8618 34.9302 10.0656C35.2058 8.42082 34.6545 6.72791 33.4733 5.54243ZM31.8283 9.54506C30.9751 14.7025 28.2014 19.8469 24.0232 24.0245C19.8451 28.2021 14.7044 30.9755 9.54629 31.8285C8.89879 31.9379 8.23379 31.7192 7.76128 31.2511L3.18939 26.6798L8.03691 21.8285L13.2782 27.0779L13.3176 27.1172L14.2626 26.7673C17.1279 25.7139 19.7299 24.0502 21.8882 21.8914C24.0465 19.7326 25.7095 17.1304 26.762 14.2651L27.112 13.3202L21.827 8.04025L26.6745 3.18898L31.2464 7.76028C31.7189 8.23272 31.9376 8.89764 31.8283 9.54506Z" fill="black"/>
</svg>
