<svg width="35" height="35" viewBox="0 0 35 35" fill="none" xmlns="http://www.w3.org/2000/svg">
<path d="M17.5 10.49C13.6206 10.49 10.4898 13.6209 10.4898 17.5003C10.4898 21.3797 13.6206 24.5105 17.5 24.5105C21.3794 24.5105 24.5103 21.3797 24.5103 17.5003C24.5103 13.6209 21.3794 10.49 17.5 10.49ZM17.5 22.0564C14.9913 22.0564 12.9439 20.0091 12.9439 17.5003C12.9439 14.9915 14.9913 12.9441 17.5 12.9441C20.0088 12.9441 22.0562 14.9915 22.0562 17.5003C22.0562 20.0091 20.0088 22.0564 17.5 22.0564ZM24.7974 8.56913C23.8916 8.56913 23.1602 9.30058 23.1602 10.2063C23.1602 11.1121 23.8916 11.8435 24.7974 11.8435C25.7032 11.8435 26.4346 11.1155 26.4346 10.2063C26.4349 9.99126 26.3927 9.77825 26.3105 9.57949C26.2284 9.38073 26.1078 9.20014 25.9557 9.04806C25.8036 8.89597 25.623 8.77539 25.4243 8.69321C25.2255 8.61103 25.0125 8.56886 24.7974 8.56913ZM31.1651 17.5003C31.1651 15.6136 31.1822 13.7439 31.0762 11.8606C30.9703 9.67314 30.4712 7.73173 28.8716 6.13212C27.2686 4.52909 25.3306 4.03349 23.1431 3.92753C21.2564 3.82157 19.3868 3.83866 17.5035 3.83866C15.6167 3.83866 13.7471 3.82157 11.8638 3.92753C9.67631 4.03349 7.7349 4.53251 6.13529 6.13212C4.53227 7.73515 4.03666 9.67314 3.9307 11.8606C3.82475 13.7474 3.84184 15.617 3.84184 17.5003C3.84184 19.3836 3.82475 21.2566 3.9307 23.1399C4.03666 25.3274 4.53568 27.2688 6.13529 28.8685C7.73832 30.4715 9.67631 30.9671 11.8638 31.073C13.7505 31.179 15.6202 31.1619 17.5035 31.1619C19.3902 31.1619 21.2598 31.179 23.1431 31.073C25.3306 30.9671 27.272 30.4681 28.8716 28.8685C30.4747 27.2654 30.9703 25.3274 31.0762 23.1399C31.1856 21.2566 31.1651 19.387 31.1651 17.5003ZM28.1573 25.5599C27.9078 26.1819 27.607 26.6468 27.125 27.1253C26.6431 27.6072 26.1817 27.908 25.5596 28.1575C23.7618 28.8719 19.4927 28.7112 17.5 28.7112C15.5074 28.7112 11.2349 28.8719 9.43705 28.1609C8.81498 27.9114 8.35014 27.6106 7.87162 27.1287C7.38969 26.6468 7.08891 26.1853 6.8394 25.5633C6.12846 23.762 6.2891 19.493 6.2891 17.5003C6.2891 15.5076 6.12846 11.2351 6.8394 9.4373C7.08891 8.81523 7.38969 8.35038 7.87162 7.87187C8.35356 7.39335 8.81498 7.08915 9.43705 6.83964C11.2349 6.1287 15.5074 6.28935 17.5 6.28935C19.4927 6.28935 23.7652 6.1287 25.563 6.83964C26.1851 7.08915 26.6499 7.38993 27.1285 7.87187C27.6104 8.3538 27.9112 8.81523 28.1607 9.4373C28.8716 11.2351 28.711 15.5076 28.711 17.5003C28.711 19.493 28.8716 23.762 28.1573 25.5599Z" fill="white"/>
</svg>
