<svg width="27" height="27" viewBox="0 0 27 27" fill="none" xmlns="http://www.w3.org/2000/svg">
<path fill-rule="evenodd" clip-rule="evenodd" d="M22.8377 4.21483C21.6249 2.99404 20.1819 2.02604 18.5923 1.36693C17.0027 0.707807 15.2981 0.370668 13.5773 0.375042C6.36146 0.375042 0.487292 6.24775 0.484375 13.4665C0.484375 15.7736 1.08667 18.0252 2.23146 20.0115L0.375 26.7942L7.31521 24.9728C9.23495 26.0178 11.3857 26.5657 13.5715 26.5667H13.5773C20.7917 26.5667 26.6658 20.694 26.6687 13.4752C26.6737 11.7551 26.3377 10.0511 25.6801 8.46159C25.0225 6.8721 24.0565 5.42871 22.8377 4.21483ZM13.5773 24.3573H13.5729C11.6239 24.3575 9.71071 23.8332 8.03417 22.8392L7.6375 22.603L3.51917 23.6836L4.61729 19.6688L4.35917 19.2575C3.26948 17.5227 2.69263 15.5151 2.69521 13.4665C2.69812 7.46692 7.57917 2.58588 13.5817 2.58588C15.0112 2.5827 16.4272 2.86308 17.7476 3.41078C19.0681 3.95849 20.2668 4.76264 21.2744 5.77671C22.2874 6.78594 23.0903 7.98593 23.6367 9.30733C24.1831 10.6287 24.4623 12.0453 24.4579 13.4752C24.455 19.4748 19.574 24.3573 13.5773 24.3573ZM19.5462 16.2067C19.2181 16.0419 17.611 15.2515 17.3106 15.1421C17.0117 15.0328 16.7944 14.9788 16.5756 15.3055C16.3569 15.6321 15.7298 16.3686 15.5387 16.5873C15.3477 16.8061 15.1567 16.8323 14.83 16.669C14.5033 16.5057 13.449 16.16 12.1992 15.0459C11.2265 14.1782 10.5702 13.1077 10.3792 12.7796C10.1881 12.4515 10.3587 12.275 10.5235 12.1117C10.6708 11.9659 10.8502 11.7296 11.0135 11.5386C11.1769 11.3475 11.2308 11.2119 11.3402 10.9932C11.4496 10.7744 11.3956 10.5834 11.3125 10.42C11.2308 10.2552 10.576 8.64525 10.3033 7.99046C10.0394 7.35608 9.76958 7.44067 9.56833 7.43192C9.3599 7.42339 9.15131 7.4195 8.94271 7.42025C8.77683 7.42448 8.61362 7.46293 8.4633 7.5332C8.31298 7.60346 8.1788 7.70403 8.06917 7.82858C7.76875 8.15671 6.92437 8.94712 6.92437 10.5571C6.92437 12.1671 8.09687 13.7232 8.26021 13.9419C8.42354 14.1607 10.5673 17.4638 13.8485 18.8813C14.6302 19.2182 15.2398 19.4194 15.7137 19.5711C16.4969 19.8205 17.21 19.784 17.7744 19.7009C18.4029 19.6075 19.7096 18.9105 19.9823 18.1463C20.255 17.3821 20.255 16.7273 20.1733 16.5903C20.0917 16.4532 19.8715 16.37 19.5462 16.2067Z" fill="white"/>
</svg>
